# xmcd
#
# Track frame offsets:
#	150
#	12332
#	22806
#	33924
#	44738
#	57409
#	70831
#	80638
#	94510
#	110584
#	125945
#	140706
#	153246
#	168357
#	182462
#	191920
#	205105
#	217853
#	230350
#	243832
#	254498
#	271615
#	288219
#	305139
#	318066
#	333338
#
# Disc length: 4624 seconds
#
# Revision: 2
# Processed by: cddbd v1.5.2PL0 Copyright (c) Steve Scherf et al.
# Submitted via: audiograbber 1.83.01
#
DISCID=6e120e1a
DTITLE=Various Artist - They Call It Crossover
DYEAR=2011
DGENRE=Soul
TTITLE0=The O'Jays - Just Another Guy
TTITLE1=The Five Stairsteps - I'm The One Who Loves You
TTITLE2=Marvin Smith - Who Will Do Your Running Now
TTITLE3=Erma Franklin - It Could've Been Me
TTITLE4=Bobby Womack - Tried and Convicted
TTITLE5=Otis Clay - Holding on To A Dying love
TTITLE6=Johnny Adams - You're A Bad Habit Baby
TTITLE7=Holland and Dozier Ft. Lamont Dozier - If You Don't Want To Be In My Life
TTITLE8=Eddie Billups - Shake Off That Dream
TTITLE9=Gene Chandler - Without You Here
TTITLE10=Linda Jones - If Only We Had Met Sooner
TTITLE11=Doris Duke - The Feeling is Right
TTITLE12=Tyrone Davis - You Keep Me Holding On
TTITLE13=Channel 3  - The Sweetest Thing
TTITLE14=Eldridge Holmes - Lovely Woman
TTITLE15=Gloria Edwards - I Don't Need Nobody (To Help Me Keep Up With My Man)
TTITLE16=Ella Washington - Stop Giving Your Man Away
TTITLE17=Tony Love - Crying Time Is Over
TTITLE18=The Eliminators - Lovin' Explosion
TTITLE19=Mary Holmes  - I Need Your Lovin'
TTITLE20=Ann Sexton - I Had A Fight With love
TTITLE21=100 Proof Aged In Soul - Don't You Wake Me
TTITLE22=Jackie Wilson - What A Lovely Way
TTITLE23=Kenny Young - Aint It Funny
TTITLE24=Na Allen - Lay It on Me Right Now
TTITLE25=Chuck Armstrong  - How Sweet It Is
EXTD=
EXTT0=
EXTT1=
EXTT2=
EXTT3=
EXTT4=
EXTT5=
EXTT6=
EXTT7=
EXTT8=
EXTT9=
EXTT10=
EXTT11=
EXTT12=
EXTT13=
EXTT14=
EXTT15=
EXTT16=
EXTT17=
EXTT18=
EXTT19=
EXTT20=
EXTT21=
EXTT22=
EXTT23=
EXTT24=
EXTT25=
PLAYORDER=
